<svg xmlns="http://www.w3.org/2000/svg" xmlns:xlink="http://www.w3.org/1999/xlink" width="500" zoomAndPan="magnify" viewBox="0 0 375 374.999991" height="500" preserveAspectRatio="xMidYMid meet" version="1.0"><defs><clipPath id="4d9a04ca9c"><path d="M 112.5 142.03125 L 262.5 142.03125 L 262.5 232.78125 L 112.5 232.78125 Z M 112.5 142.03125 " clip-rule="nonzero"/></clipPath></defs><g clip-path="url(#4d9a04ca9c)"><path fill="#ffffff" d="M 245.652344 180.628906 C 246.425781 178.59375 246.855469 176.394531 246.855469 174.089844 C 246.855469 163.929688 238.609375 155.6875 228.417969 155.6875 C 226.339844 155.6875 224.355469 156.035156 222.488281 156.667969 C 217.921875 147.972656 208.777344 142.035156 198.25 142.035156 C 185.453125 142.035156 174.714844 150.792969 171.71875 162.625 C 168.648438 159.964844 164.652344 158.34375 160.265625 158.34375 C 150.621094 158.34375 142.804688 166.140625 142.804688 175.761719 C 142.804688 175.910156 142.804688 176.046875 142.816406 176.195312 C 139.9375 174.679688 136.65625 173.804688 133.164062 173.804688 C 121.75 173.816406 112.5 183.046875 112.5 194.4375 C 112.5 205.828125 121.75 215.070312 133.175781 215.070312 C 135.148438 215.070312 137.058594 214.785156 138.859375 214.269531 C 141.253906 223.851562 149.925781 230.957031 160.273438 230.957031 C 167.046875 230.957031 173.089844 227.914062 177.140625 223.125 C 179.96875 228.839844 185.863281 232.765625 192.679688 232.765625 C 199.492188 232.765625 205.042969 229.0625 207.964844 223.617188 C 208.058594 223.585938 208.152344 223.566406 208.25 223.535156 C 210.960938 226.300781 214.746094 228.027344 218.933594 228.027344 C 226.320312 228.027344 232.445312 222.679688 233.660156 215.660156 C 236.53125 217.40625 239.90625 218.40625 243.523438 218.40625 C 254.007812 218.40625 262.519531 209.921875 262.519531 199.449219 C 262.519531 189.710938 255.160156 181.679688 245.675781 180.617188 Z M 245.652344 180.628906 " fill-opacity="1" fill-rule="nonzero"/></g></svg>